<svg xmlns="http://www.w3.org/2000/svg" viewBox="0 0 500 300">
  <rect width="500" height="300" fill="#f0f9ff"/>
  <rect x="50" y="80" width="120" height="140" rx="10" fill="#3b82f6" opacity="0.8"/>
  <rect x="70" y="100" width="80" height="20" rx="5" fill="white"/>
  <rect x="70" y="130" width="80" height="20" rx="5" fill="white"/>
  <rect x="70" y="160" width="80" height="20" rx="5" fill="white"/>
  <rect x="200" y="80" width="120" height="140" rx="10" fill="#10b981" opacity="0.8"/>
  <rect x="220" y="100" width="80" height="20" rx="5" fill="white"/>
  <rect x="220" y="130" width="80" height="20" rx="5" fill="white"/>
  <rect x="220" y="160" width="80" height="20" rx="5" fill="white"/>
  <rect x="350" y="80" width="120" height="140" rx="10" fill="#f59e0b" opacity="0.8"/>
  <rect x="370" y="100" width="80" height="20" rx="5" fill="white"/>
  <rect x="370" y="130" width="80" height="20" rx="5" fill="white"/>
  <rect x="370" y="160" width="80" height="20" rx="5" fill="white"/>
  <circle cx="110" cy="250" r="20" fill="#3b82f6"/>
  <circle cx="260" cy="250" r="20" fill="#10b981"/>
  <circle cx="410" cy="250" r="20" fill="#f59e0b"/>
</svg>